<svg width="32" height="32" viewBox="0 0 32 32" fill="none" xmlns="http://www.w3.org/2000/svg">
<g clip-path="url(#clip0_383_531)">
<path d="M13.3688 0.0937529C12.5438 0.393753 12.1813 0.762503 11.675 1.7875C11.3813 2.3875 11.2813 2.6625 11.2313 3.03125C11.1 3.95 11.4 4.85625 12.0625 5.5C13.325 6.74375 15.4438 6.54375 16.4438 5.0875C16.725 4.675 17.1875 3.60625 17.2563 3.1875C17.3938 2.425 17.1 1.54375 16.5188 0.993752C16.1625 0.650002 15.8313 0.450003 15.175 0.193753C14.7625 0.0250025 14.6188 2.86102e-06 14.1438 0.00625277C13.8438 0.00625277 13.4938 0.0437527 13.3688 0.0937529ZM15.0875 1.26875C15.9313 1.66875 16.2688 2.1125 16.2688 2.825C16.2688 3.125 16.2188 3.275 15.9188 3.89375C15.525 4.70625 15.2625 4.975 14.7063 5.1875C13.6563 5.58125 12.5875 5 12.275 3.875C12.1313 3.38125 12.1938 3.0625 12.5875 2.24375C13.0188 1.34375 13.4438 1.00625 14.15 1C14.4563 1 14.6125 1.04375 15.0875 1.26875Z" fill="black"/>
<path d="M6.15624 2.81251C5.36249 2.925 4.49999 3.34376 3.89999 3.90626C3.61249 4.175 3.56249 4.25626 3.56249 4.45C3.56249 4.98125 4.04374 5.1375 4.48124 4.74376C5.56249 3.76875 6.86874 3.51875 8.03749 4.05626C8.61874 4.325 8.93749 4.8625 8.83124 5.38126C8.77499 5.675 5.46874 12.4875 5.29374 12.675C4.73124 13.2813 3.83749 13.1438 3.02499 12.3375C2.40624 11.7188 2.09999 10.9813 2.09999 10.0938C2.09374 9.40001 2.15624 9.22501 2.88124 7.71251C3.18749 7.075 3.43749 6.50001 3.43749 6.43126C3.43749 6.3625 3.34999 6.21876 3.24999 6.1125C3.08749 5.95625 3.02499 5.93126 2.85624 5.96251C2.74999 5.9875 2.62499 6.03751 2.58124 6.08125C2.44374 6.21876 1.37499 8.45625 1.23124 8.90626C1.04999 9.48125 1.03749 10.6438 1.21249 11.2188C1.66874 12.7438 2.99374 13.9875 4.21874 14.05L4.66249 14.075L4.47499 14.6125C4.30624 15.1 4.28749 15.2375 4.29374 15.9063C4.29374 16.625 4.30624 16.7 4.61249 17.7188C4.95624 18.85 5.04999 19 5.38749 19C5.62499 19 5.87499 18.75 5.87499 18.5188C5.87499 18.425 5.74374 17.9188 5.58749 17.4063C5.33124 16.5875 5.29374 16.3938 5.29374 15.9063C5.29374 14.9375 5.09374 14.9375 7.40624 15.9125L9.41249 16.7625L9.90624 18.925C10.4562 21.3188 10.5 21.7 10.2687 22.2813C10.175 22.525 7.76249 26.8 7.33749 27.475C7.25624 27.6125 7.23749 27.6 5.92499 26.925C5.19374 26.55 4.58749 26.2313 4.58124 26.225C4.57499 26.2188 4.97499 25.4938 5.48124 24.625C6.71249 22.4688 6.76249 22.3563 6.76249 21.7875C6.76249 21.475 6.71249 21.1625 6.59999 20.7875C6.44374 20.2875 6.41249 20.2313 6.21874 20.15C5.95624 20.0438 5.74374 20.1125 5.58749 20.35C5.48124 20.5063 5.48124 20.5375 5.61874 21.075C5.71249 21.4188 5.75624 21.725 5.73749 21.8938C5.71249 22.1063 5.29999 22.8375 3.80624 25.3438L1.90624 28.525V28.9375C1.91249 29.4 2.04999 29.725 2.38749 30.0438C2.50624 30.1563 3.35624 30.6188 4.36249 31.1188C6.04374 31.9563 6.14999 32 6.50624 32C7.08124 32 7.50624 31.7313 7.71249 31.25C7.76874 31.1063 7.83124 30.575 7.88124 29.75L7.95624 28.4688L9.51874 25.75C10.3812 24.2563 11.1562 22.8375 11.2375 22.5938C11.3687 22.2313 11.4 22.0375 11.4 21.4563C11.4062 21.0688 11.4312 20.75 11.4562 20.75C11.4875 20.75 12.0562 20.875 12.7312 21.0313C13.5312 21.2125 14.05 21.3688 14.225 21.4688C14.5437 21.6563 14.425 21.4625 16.4062 25.0313C17.2312 26.5063 17.9875 27.8 18.0875 27.9L18.2812 28.075L16.6375 29.6813C15.0562 31.2188 14.9937 31.2875 15 31.5125C15 31.8313 15.175 32 15.4875 32C15.7187 32 15.8062 31.925 17.6312 30.1375C18.6812 29.1063 19.5937 28.2375 19.6562 28.2063C19.725 28.1688 20.3625 27.9938 21.075 27.8188C22.475 27.4813 22.7187 27.3813 23.075 27.0375C23.525 26.6 23.75 26.025 23.75 25.2938C23.75 25.1125 23.7812 24.8563 23.8187 24.725C23.9375 24.2938 24.125 24.1813 25.3437 23.8125C26.0312 23.6063 26.5562 23.4063 26.7312 23.2938C27.1062 23.0438 27.4 22.625 27.5625 22.1063C27.6375 21.875 27.7562 21.6125 27.8312 21.5313C27.9062 21.45 28.6 21.0375 29.375 20.625C30.15 20.2125 30.8187 19.825 30.8625 19.7688C30.975 19.6125 30.9562 19.35 30.8062 19.1625C30.575 18.8688 30.3812 18.925 28.8875 19.725C28.1437 20.125 27.4375 20.525 27.325 20.6063C27.0187 20.8313 26.7625 21.225 26.65 21.6188C26.5187 22.075 26.3687 22.3188 26.1187 22.4625C25.9312 22.5688 24.5562 23.0188 24.5187 22.9813C24.4875 22.95 19.675 12.7875 19.575 12.55C19.4812 12.3188 19.4812 12.3125 19.7 12.075C20.05 11.6875 20.2062 11.1938 20.175 10.5938C20.1375 9.98125 19.9687 9.58751 19.5625 9.18751C19.1937 8.81251 18.7625 8.6125 18.2437 8.575C17.6375 8.53126 17.3375 8.63126 16.125 9.27501L15.0312 9.85625L14.9875 9.45C14.9312 8.89375 14.65 8.33751 14.2312 7.96251C13.9687 7.72501 13.5 7.46876 11.8812 6.68751L9.85624 5.70625L9.84999 5.18126C9.83749 4.55626 9.66249 4.1125 9.24999 3.66251C8.65624 3.01875 7.30624 2.65001 6.15624 2.81251ZM10.8125 7.31251C10.9437 7.38126 11.1062 7.5125 11.175 7.60625C11.3062 7.8 12.4312 9.9125 12.4562 10.0125C12.4687 10.0625 12.1125 10.2813 10.8625 10.9813L10.5125 11.1813L9.89374 10.0125C9.12499 8.55 9.08124 8.43751 9.18124 8.06876C9.28124 7.69376 9.44999 7.47501 9.76249 7.31876C10.1 7.15626 10.4937 7.15001 10.8125 7.31251ZM13.1125 8.43126C13.3062 8.53126 13.5312 8.68126 13.6062 8.75626C13.95 9.12501 14.0875 9.77501 13.9187 10.2313L13.8437 10.4313L13.275 9.33751C12.9625 8.7375 12.7125 8.25001 12.7312 8.25001C12.7437 8.25001 12.9125 8.33125 13.1125 8.43126ZM9.46874 11.3875C10.8062 13.9375 11.0125 14.275 11.4062 14.5688C11.5562 14.6875 11.6875 14.8 11.6875 14.8188C11.6875 14.85 11.1312 16.0688 11.1 16.1125C11.0875 16.1188 9.90624 15.675 8.46249 15.1313C6.67499 14.45 5.84999 14.1063 5.86249 14.05C5.88749 13.9188 8.21249 9.12501 8.24999 9.12501C8.26874 9.12501 8.81874 10.1438 9.46874 11.3875ZM18.6812 9.76875C18.9625 9.95625 19.1875 10.3688 19.1875 10.7125C19.1875 10.975 19.0187 11.3438 18.8 11.5375C18.5687 11.75 14.0625 14.1063 13.7312 14.1938C13.1062 14.35 12.375 14.1188 11.9125 13.625C11.7562 13.4625 11.4937 13.05 11.3187 12.7L11.0062 12.075L11.9812 11.5313L12.9625 10.9813L13.0875 11.1375C13.1625 11.225 13.3125 11.3438 13.4312 11.4063C13.825 11.6063 14.0875 11.5188 15.5937 10.7188C17.7125 9.58751 17.7937 9.55 18.1375 9.58125C18.3187 9.59376 18.5312 9.66875 18.6812 9.76875ZM21.0812 18.125L23.5687 23.375L23.375 23.5375C23.0562 23.8063 22.8687 24.2063 22.7875 24.7625L22.7125 25.2688L21.9625 24.275C21.55 23.725 20.4812 22.1813 19.5812 20.8438C18.6875 19.5 17.8375 18.2875 17.6937 18.1375C17.3312 17.7688 16.7375 17.3938 16.2875 17.2563C16.075 17.1938 15.0625 16.9625 14.0312 16.75C13 16.5375 12.15 16.35 12.1375 16.3438C12.125 16.3313 12.2375 16.0813 12.3875 15.7813L12.6625 15.2438L13.3125 15.225C13.7937 15.2125 14.0625 15.175 14.3125 15.0813C14.5 15.0125 15.5312 14.4875 16.5937 13.9188C17.6625 13.35 18.5437 12.8813 18.5625 12.8813C18.5812 12.875 19.7125 15.2375 21.0812 18.125ZM13.2687 17.625C16.15 18.2313 16.3437 18.2938 16.8562 18.7688C17.225 19.1063 20.1625 23.4938 20.05 23.5313C20.0062 23.5438 19.3687 23.7 18.6312 23.8813C17.3375 24.1938 17.2875 24.2 17.2062 24.0875C17.1562 24.0188 16.7437 23.35 16.2937 22.5938C15.4375 21.175 15.0937 20.7375 14.625 20.5C14.4812 20.425 13.6437 20.2 12.7687 20C11.8875 19.7938 11.1562 19.6125 11.1312 19.5938C11.0812 19.5438 10.5125 17.0625 10.55 17.0625C10.5687 17.0625 11.7937 17.3188 13.2687 17.625ZM21.4437 25.2813C22.0937 26.1313 22.2062 26.3563 22.0437 26.4875C21.9562 26.5625 19.2187 27.25 19.0125 27.25C18.825 27.25 18.6625 27.0125 18.2 26.05L17.7625 25.1313L19.1437 24.7938C19.9062 24.6 20.5875 24.4438 20.6625 24.4438C20.7562 24.4375 20.9625 24.6563 21.4437 25.2813ZM5.49374 27.8563C6.26874 28.2563 6.91249 28.5875 6.92499 28.5938C6.96874 28.6313 6.79374 30.7875 6.74374 30.8875C6.71249 30.95 6.62499 31 6.56249 31C6.49374 31 5.68124 30.6188 4.74999 30.1563C3.07499 29.3188 2.80624 29.1375 2.89999 28.9063C2.94999 28.7688 4.01249 27.125 4.04374 27.125C4.06249 27.125 4.71249 27.45 5.49374 27.8563Z" fill="black"/>
</g>
<defs>
<clipPath id="clip0_383_531">
<rect width="32" height="32" fill="white"/>
</clipPath>
</defs>
</svg>
