<svg width="19" height="20" viewBox="0 0 19 20" fill="none" xmlns="http://www.w3.org/2000/svg">
<path d="M9.47371 11.25C8.88817 11.25 8.31579 11.0667 7.82893 10.7233C7.34208 10.38 6.96262 9.89191 6.73854 9.32089C6.51447 8.74987 6.45584 8.12154 6.57007 7.51534C6.6843 6.90915 6.96627 6.35233 7.3803 5.91529C7.79434 5.47825 8.32186 5.18063 8.89614 5.06005C9.47043 4.93947 10.0657 5.00135 10.6067 5.23788C11.1476 5.4744 11.61 5.87494 11.9353 6.38884C12.2606 6.90275 12.4342 7.50694 12.4342 8.125C12.4333 8.9535 12.1211 9.74778 11.5661 10.3336C11.0111 10.9195 10.2586 11.249 9.47371 11.25ZM9.47371 6.25C9.12239 6.25 8.77896 6.35997 8.48684 6.566C8.19473 6.77202 7.96705 7.06486 7.83261 7.40747C7.69816 7.75008 7.66299 8.12708 7.73153 8.4908C7.80007 8.85451 7.96924 9.1886 8.21767 9.45083C8.46609 9.71305 8.7826 9.89163 9.12717 9.96397C9.47174 10.0363 9.8289 9.99919 10.1535 9.85728C10.4781 9.71536 10.7555 9.47504 10.9507 9.1667C11.1458 8.85835 11.25 8.49584 11.25 8.125C11.2496 7.62787 11.0623 7.15125 10.7292 6.79972C10.3962 6.4482 9.94468 6.2505 9.47371 6.25Z" fill="#393939"/>
<path d="M9.47374 18.75L4.47874 12.5319C4.40933 12.4385 4.34064 12.3445 4.27268 12.25C3.41945 11.0636 2.95851 9.61452 2.96058 8.125C2.96058 6.30164 3.64678 4.55295 4.86824 3.26364C6.08969 1.97433 7.74634 1.25 9.47374 1.25C11.2011 1.25 12.8578 1.97433 14.0792 3.26364C15.3007 4.55295 15.9869 6.30164 15.9869 8.125C15.989 9.61384 15.5282 11.0623 14.6754 12.2481L14.6748 12.25C14.6748 12.25 14.4972 12.4963 14.4705 12.5294L9.47374 18.75ZM5.21768 11.4969C5.21887 11.4969 5.35624 11.6894 5.38762 11.7306L9.47374 16.8175L13.5652 11.7237C13.5912 11.6894 13.7298 11.4956 13.7304 11.495C14.4274 10.5257 14.8041 9.34189 14.8027 8.125C14.8027 6.63316 14.2412 5.20242 13.2419 4.14752C12.2425 3.09263 10.8871 2.5 9.47374 2.5C8.06041 2.5 6.70497 3.09263 5.7056 4.14752C4.70623 5.20242 4.14479 6.63316 4.14479 8.125C4.14355 9.34265 4.52005 10.5271 5.21768 11.4969Z" fill="#393939"/>
</svg>
