<svg width="32" height="32" viewBox="0 0 32 32" fill="none" xmlns="http://www.w3.org/2000/svg">
<g clip-path="url(#clip0_383_553)">
<path d="M3.58126 0.131252C3.13751 0.306253 2.61251 0.793753 2.39376 1.2375L2.21877 1.59375L2.20001 5.11875L2.18126 8.64375L1.88126 8.99375C0.968765 10.0563 0.518765 10.9125 0.175015 12.1875C-0.00623499 12.8688 -0.049985 14.5188 0.087515 15.2625C0.225015 16 0.456265 16.6688 0.800015 17.3438C1.10001 17.9188 1.65001 18.7 1.99376 19.025L2.18752 19.2125V21.775C2.18752 24.55 2.22501 25.0313 2.53127 25.9563C3.27501 28.25 5.23751 30.1 7.53126 30.6813C8.30626 30.8813 8.98127 30.9375 10.45 30.9375H11.8125L12.2063 31.3313C12.8688 32.0063 12.8125 32 16 32C18.5625 32 18.7 31.9938 19.0313 31.8688C19.4813 31.7 19.9875 31.2375 20.2188 30.7688L20.4063 30.4063V28.375V26.3438L20.225 25.9688C19.8875 25.2875 19.4125 24.9438 18.3063 24.5938C16.8688 24.1438 15.1313 24.1438 13.6875 24.6C12.6188 24.9375 12.0938 25.3125 11.7813 25.9688C11.6938 26.1563 11.625 26.3375 11.625 26.375C11.625 26.4313 11.2313 26.4438 10.175 26.425L8.71876 26.4063L8.29377 26.2063C7.43126 25.7938 6.81876 24.9938 6.68751 24.0875C6.59376 23.4313 6.60627 21.375 6.70626 21.375C6.74376 21.375 7.07502 21.45 7.43751 21.5375C8.37501 21.7688 9.20002 21.8063 9.86876 21.6313C10.6063 21.45 11.1125 21.1375 11.8188 20.4563L12.4188 19.875H16H19.5813L20.1813 20.4563C20.8875 21.1375 21.3938 21.45 22.1313 21.6313C22.9313 21.8375 23.575 21.7813 25.3438 21.3563C27.0125 20.95 27.2688 20.8688 28.0375 20.4813C30.0438 19.475 31.4875 17.5313 31.9125 15.2688C32.0688 14.4375 32.0063 12.8625 31.7875 12.075C31.5688 11.3 31.3125 10.6875 30.9438 10.0875C29.875 8.3625 28.2 7.19375 26.125 6.725C25.5313 6.59375 25.4938 6.59375 16.0813 6.59375H6.63126L6.61251 4.0625L6.59376 1.53125L6.41877 1.2C6.20002 0.781252 5.84376 0.425003 5.42501 0.206253C4.96876 -0.0249977 4.06876 -0.0687485 3.58126 0.131252ZM4.86251 1.25625C5.02501 1.3375 5.20001 1.49375 5.30001 1.64375L5.46876 1.9V4.3625V6.825L5.00001 6.975C4.73751 7.05625 4.25001 7.2625 3.91876 7.4375L3.30626 7.75L3.32501 4.85625L3.34376 1.96875L3.51251 1.68125C3.63126 1.48125 3.76876 1.35 3.95001 1.25625C4.28751 1.0875 4.51251 1.0875 4.86251 1.25625ZM26.2063 7.95C28.4938 8.58125 30.1938 10.3563 30.725 12.6563C30.9 13.425 30.875 14.6625 30.675 15.4375C30.2 17.2125 29.0188 18.6813 27.4063 19.4813C26.875 19.75 26.4063 19.8938 24.875 20.2563C23.3375 20.625 22.8375 20.6625 22.2375 20.4438C21.7625 20.2813 21.4438 20.05 20.8625 19.4563L20.3813 18.9688L19.5563 15.6563L18.7313 12.3438L18.2875 11.9C17.625 11.2375 17.0188 11 16 11C14.9813 11 14.375 11.2375 13.7125 11.9L13.2688 12.3438L12.4438 15.6563L11.6188 18.9688L11.1375 19.4563C10.5688 20.0375 10.275 20.25 9.81251 20.4188C9.05001 20.7 8.90626 20.6875 6.56251 20.1188C4.75627 19.675 4.02501 19.3125 3.04376 18.3813C2.21251 17.5875 1.63751 16.5938 1.32501 15.4375C1.19376 14.9313 1.16876 14.7063 1.16876 13.9375C1.16876 13.1625 1.19376 12.9438 1.33126 12.425C1.88751 10.325 3.53126 8.6125 5.55001 8.025C6.46876 7.75625 6.35001 7.7625 16.1875 7.76875L25.5938 7.78125L26.2063 7.95ZM16.9688 12.3563C17.1063 12.425 17.3125 12.5813 17.4313 12.7C17.6438 12.9 17.6688 12.9813 18.3813 15.8313L19.1125 18.75H16H12.8875L13.6 15.8875C13.9938 14.3188 14.35 12.9625 14.4 12.875C14.5063 12.6875 15 12.3375 15.275 12.25C15.3813 12.2188 15.75 12.2 16.0938 12.2063C16.5813 12.225 16.775 12.2563 16.9688 12.3563ZM4.50001 20.7313C4.75626 20.8375 5.08751 20.9563 5.23751 20.9938L5.50001 21.0688V22.65C5.50001 24.4563 5.56876 24.8813 5.98126 25.6188C6.29376 26.1813 7.03751 26.9125 7.56251 27.1625C8.36251 27.55 8.53126 27.5813 10.1125 27.6125L11.5625 27.6375V28.6938V29.75H10.175C8.61251 29.75 8.05626 29.6688 7.15001 29.3188C5.79377 28.7938 4.53751 27.5938 3.90001 26.225C3.41876 25.1813 3.31876 24.4125 3.31251 21.8625V20.1313L3.67501 20.3375C3.86876 20.4438 4.24376 20.625 4.50001 20.7313ZM17.65 25.625C18.3875 25.825 18.8938 26.075 19.0688 26.3188C19.2188 26.5313 19.2188 26.5438 19.2375 28.25C19.25 29.1938 19.2375 30.0313 19.2188 30.1125C19.1625 30.3438 18.7563 30.7438 18.5125 30.8125C18.2063 30.8938 13.7938 30.8938 13.4875 30.8125C13.2438 30.7438 12.8375 30.3438 12.7813 30.1125C12.7625 30.0313 12.75 29.1938 12.7625 28.25C12.7813 26.5438 12.7813 26.5313 12.9313 26.3188C13.1125 26.0688 13.6375 25.8125 14.35 25.6313C15.1 25.4438 15.0875 25.4438 16.1563 25.4688C16.9438 25.4813 17.2625 25.5188 17.65 25.625Z" fill="black"/>
<path d="M6.21872 8.91876C4.84997 9.21251 3.48122 10.2 2.90622 11.3063C2.67497 11.7625 3.04372 12.25 3.54372 12.1563C3.70622 12.125 3.80622 12.05 3.95622 11.825C4.27497 11.3563 4.93747 10.7313 5.37497 10.4875C6.06247 10.1063 6.53122 9.99376 7.60622 9.95626C8.50622 9.91876 8.56247 9.91251 8.69997 9.76876C8.91247 9.54376 8.89372 9.15626 8.66872 8.96251C8.49997 8.81876 8.45622 8.81251 7.57497 8.81876C7.01247 8.81876 6.48747 8.85626 6.21872 8.91876Z" fill="black"/>
<path d="M10.0875 8.95626C9.9562 9.07501 9.9187 9.15626 9.9187 9.36876C9.9187 9.73751 10.1187 9.93751 10.4812 9.93751C10.7812 9.93751 10.9687 9.80001 11.0375 9.53126C11.175 8.96876 10.5312 8.57501 10.0875 8.95626Z" fill="black"/>
<path d="M15.3875 13.3875C15.2562 13.5313 14.875 14.8875 14.875 15.2188C14.875 15.4375 15.1875 15.75 15.4062 15.75C15.7312 15.75 15.925 15.5875 16.025 15.2313C16.4062 13.9063 16.4312 13.6188 16.1875 13.375C16.0063 13.1938 15.5625 13.2063 15.3875 13.3875Z" fill="black"/>
<path d="M14.6125 16.6C14.2563 16.7875 14.2063 17.2125 14.4938 17.5063C14.7813 17.7938 15.225 17.725 15.4125 17.3688C15.5625 17.0688 15.4438 16.7125 15.1563 16.5875C14.8938 16.4813 14.825 16.4813 14.6125 16.6Z" fill="black"/>
<path d="M15.2125 26.5C14.8438 26.65 14.7625 27.15 15.0563 27.4438C15.2375 27.625 15.2438 27.625 16 27.625C16.7563 27.625 16.7625 27.625 16.9438 27.4438C17.175 27.2063 17.1875 26.8938 16.975 26.6438C16.825 26.475 16.8063 26.4688 16.0813 26.4563C15.675 26.4438 15.2813 26.4688 15.2125 26.5Z" fill="black"/>
<path d="M15.0312 28.8438C14.8125 29.0563 14.8187 29.425 15.0375 29.65C15.2 29.8063 15.225 29.8125 15.9937 29.8125C16.5125 29.8063 16.8125 29.7813 16.8812 29.7313C17.1625 29.5188 17.2062 29.075 16.9687 28.8438C16.825 28.6938 16.7875 28.6875 16 28.6875C15.2125 28.6875 15.175 28.6938 15.0312 28.8438Z" fill="black"/>
</g>
<defs>
<clipPath id="clip0_383_553">
<rect width="32" height="32" fill="white"/>
</clipPath>
</defs>
</svg>
