<svg width="20" height="20" viewBox="0 0 20 20" fill="none" xmlns="http://www.w3.org/2000/svg">
<path d="M10.2106 1.875C8.68816 1.875 7.19995 2.35152 5.93413 3.24431C4.6683 4.1371 3.68171 5.40605 3.09911 6.8907C2.51652 8.37535 2.36409 10.009 2.66109 11.5851C2.95809 13.1612 3.6912 14.6089 4.76769 15.7452C5.84419 16.8815 7.21573 17.6554 8.70887 17.9689C10.202 18.2824 11.7497 18.1215 13.1562 17.5065C14.5627 16.8916 15.7649 15.8502 16.6107 14.514C17.4565 13.1779 17.9079 11.607 17.9079 10C17.9058 7.84581 17.0941 5.78051 15.651 4.25727C14.208 2.73403 12.2514 1.87727 10.2106 1.875ZM10.2106 16.875C8.92237 16.875 7.66312 16.4718 6.59204 15.7164C5.52096 14.9609 4.68615 13.8872 4.19318 12.6309C3.70022 11.3747 3.57123 9.99237 3.82255 8.65875C4.07386 7.32513 4.69418 6.10013 5.60506 5.13864C6.51594 4.17716 7.67647 3.52237 8.9399 3.2571C10.2033 2.99183 11.5129 3.12798 12.703 3.64833C13.8932 4.16868 14.9104 5.04987 15.626 6.18045C16.3417 7.31104 16.7237 8.64025 16.7237 10C16.7218 11.8227 16.0349 13.5702 14.8139 14.8591C13.5929 16.1479 11.9374 16.8729 10.2106 16.875ZM14.9474 10C14.9474 10.1658 14.885 10.3247 14.774 10.4419C14.6629 10.5592 14.5123 10.625 14.3553 10.625H10.2106C10.0535 10.625 9.90292 10.5592 9.79187 10.4419C9.68083 10.3247 9.61845 10.1658 9.61845 10V5.625C9.61845 5.45924 9.68083 5.30027 9.79187 5.18306C9.90292 5.06585 10.0535 5 10.2106 5C10.3676 5 10.5182 5.06585 10.6292 5.18306C10.7403 5.30027 10.8027 5.45924 10.8027 5.625V9.375H14.3553C14.5123 9.375 14.6629 9.44085 14.774 9.55806C14.885 9.67527 14.9474 9.83424 14.9474 10Z" fill="#393939"/>
</svg>
