<svg width="20" height="23" viewBox="0 0 20 23" fill="none" xmlns="http://www.w3.org/2000/svg">
<g clip-path="url(#clip0_383_676)">
<path d="M17.8571 1.42847H2.14286C0.959821 1.42847 0 2.38829 0 3.57132V19.2856C0 20.4686 0.959821 21.4285 2.14286 21.4285H17.8571C19.0402 21.4285 20 20.4686 20 19.2856V3.57132C20 2.38829 19.0402 1.42847 17.8571 1.42847ZM15.6741 8.51775C15.683 8.64275 15.683 8.77222 15.683 8.89722C15.683 12.7678 12.7366 17.2276 7.35268 17.2276C5.69196 17.2276 4.15179 16.7454 2.85714 15.9151C3.09375 15.9419 3.32143 15.9508 3.5625 15.9508C4.93304 15.9508 6.19196 15.4865 7.19643 14.7008C5.91071 14.674 4.83036 13.8303 4.45982 12.6695C4.91071 12.7365 5.31696 12.7365 5.78125 12.616C4.44196 12.3436 3.4375 11.1651 3.4375 9.74097V9.70525C3.82589 9.924 4.28125 10.0579 4.75893 10.0758C4.35733 9.80866 4.02812 9.44627 3.80066 9.02095C3.5732 8.59563 3.45457 8.12061 3.45536 7.63829C3.45536 7.09365 3.59821 6.59365 3.85268 6.16061C5.29464 7.9374 7.45982 9.09811 9.88839 9.22311C9.47321 7.2365 10.9598 5.6249 12.7455 5.6249C13.5893 5.6249 14.3482 5.97757 14.8839 6.549C15.5446 6.424 16.1786 6.17847 16.7411 5.84365C16.5223 6.52222 16.0625 7.09365 15.4554 7.45525C16.0446 7.39275 16.6161 7.22757 17.1429 6.9999C16.7455 7.58472 16.2455 8.10257 15.6741 8.51775Z" fill="white"/>
</g>
<defs>
<clipPath id="clip0_383_676">
<rect width="20" height="22.8571" fill="white"/>
</clipPath>
</defs>
</svg>
